# xmcd CD database file
#
# Track frame offsets:
#	150
#	13175
#	28405
#	40122
#	51595
#	65117
#	78747
#	90350
#	105445
#	114887
#
# Disc length: 1738 seconds
#
# Revision: 0
# Processed by: cddbd v1.4PL0 Copyright (c) Steve Scherf et al.
# Submitted via: CDex 1.50beta10
#
DISCID=8106c80a
DTITLE=Margo Smith - The Soft Side Of Margo
DYEAR=1900
DGENRE=Country
TTITLE0=Don't Break The Heart That Loves You
TTITLE1=Still A Woman
TTITLE2=Love's Explosion
TTITLE3=If I Give My Heart To You
TTITLE4=It Only Hurts For A Little While
TTITLE5=Little Things Mean A Lot
TTITLE6=Paper Lovin'
TTITLE7=Shuffle Song
TTITLE8=There I Said It
TTITLE9=Save Your Kisses For Me
EXTD=
EXTT0=
EXTT1=
EXTT2=
EXTT3=
EXTT4=
EXTT5=
EXTT6=
EXTT7=
EXTT8=
EXTT9=
PLAYORDER=
